<?xml version="1.0" encoding="utf-8"?>
<!-- Generator: Adobe Illustrator 24.3.0, SVG Export Plug-In . SVG Version: 6.00 Build 0)  -->
<svg version="1.0" id="Layer_1" xmlns="http://www.w3.org/2000/svg" xmlns:xlink="http://www.w3.org/1999/xlink" x="0px" y="0px"
	 viewBox="0 0 201.1 201.1" style="enable-background:new 0 0 201.1 201.1;" xml:space="preserve">
<style type="text/css">
	.st0{fill:#e6e6e6;}
	.st1{fill:#232322;}
	.st2{fill:#EDC01B;}
	.st3{fill:#A1BF39;}
	.st4{fill:#C21E1E;}
	.st5{fill:#496776;}
</style>
<g>
	<path class="st0" d="M200.6,73.7c-2.2-8.3-13.6-13-18-20.6c-4.2-7.3-2.6-19.6-8.9-25.9c-6.3-6.3-18.5-4.6-25.9-8.9
		c-7.6-4.4-12.3-15.8-20.6-18C126.3,0.1,125.1,0,124,0c-7.6,0-16,5.7-23.5,5.7C93,5.7,84.6,0,77,0c-1.1,0-2.2,0.1-3.3,0.4
		c-8.3,2.2-13,13.6-20.6,18c-7.3,4.2-19.6,2.6-25.9,8.9c-6.3,6.3-4.6,18.5-8.9,25.9C14,60.7,2.6,65.4,0.4,73.7
		c-2.2,8.4,5.3,18.2,5.3,26.8c0,8.6-7.5,18.4-5.3,26.8c2.2,8.3,13.6,13,18,20.6c4.2,7.3,2.6,19.6,8.9,25.9
		c6.3,6.3,18.5,4.6,25.9,8.9c7.6,4.4,12.3,15.8,20.6,18c1.1,0.3,2.2,0.4,3.3,0.4c7.6,0,16-5.7,23.5-5.7c7.5,0,15.9,5.7,23.5,5.7
		c1.1,0,2.2-0.1,3.3-0.4c8.3-2.2,13-13.6,20.6-18c7.3-4.2,19.6-2.6,25.9-8.9c6.3-6.3,4.6-18.5,8.9-25.9c4.4-7.6,15.8-12.3,18-20.6
		c2.2-8.4-5.3-18.2-5.3-26.8S202.9,82.1,200.6,73.7z"/>
	<g>
		<path class="st1" d="M118.8,166.9l-4,1.1l3.5,12.6l2.2-0.6l-1.3-4.6l1.8-0.5c2.7-0.7,4.4-2.6,3.7-5.4
			C123.9,166.6,121.6,166.2,118.8,166.9z M120.4,173.2l-1.6,0.4l-1.2-4.4l1.6-0.4c1.9-0.5,3-0.2,3.4,1.3
			C123,171.7,122.3,172.7,120.4,173.2z"/>
		<path class="st1" d="M129.6,162.7c-3.1,1.4-4.2,4.7-2.4,8.5c1.8,3.8,5,5.2,8.1,3.7c3.1-1.4,4.1-4.8,2.3-8.6
			C135.9,162.5,132.7,161.3,129.6,162.7z M134.5,173.2c-1.9,0.9-3.9-0.3-5.1-2.9c-1.2-2.7-0.8-4.8,1.1-5.7c1.9-0.9,3.8,0.2,5.1,2.8
			C136.8,170,136.4,172.3,134.5,173.2z"/>
		<polygon class="st1" points="144.6,167.3 138.4,158.1 136.5,159.4 143.8,170.2 150.2,165.9 149.1,164.3 		"/>
		<polygon class="st1" points="153.3,160.7 150.7,157.9 154.1,154.7 152.8,153.3 149.4,156.4 147.1,153.9 151.2,150.2 149.9,148.8 
			144.1,154.1 152.9,163.7 158.8,158.3 157.5,156.9 		"/>
		<path class="st1" d="M164.2,147.3c0.2,1.1,0,2.1-0.7,3c-1.4,1.7-3.7,1.6-6-0.2c-2.3-1.9-2.7-4.2-1.4-5.8c0.6-0.8,1.5-1.1,2.4-1.2
			l-0.4-1.9c-1.2,0.1-2.6,0.6-3.7,1.9c-2.1,2.6-1.8,6.2,1.5,9c3.4,2.7,6.9,2.2,8.9-0.3c1.1-1.3,1.4-2.8,1.1-4.4L164.2,147.3z"/>
		<path class="st1" d="M172.9,139.3l1.2-2.1l-13.4-3l-1.4,2.3l9.1,10.3l1.2-2l-2.5-2.7l2.2-3.8L172.9,139.3z M165.8,140.8l-1.1-1.2
			c-1-1.1-2.1-2.1-3.1-3.2l0-0.1c1.4,0.4,2.9,0.8,4.3,1.2l1.6,0.4L165.8,140.8z"/>
		<path class="st1" d="M173.9,126.9l-8.3-3.4l-0.9,2.1l8.1,3.3c1.7,0.7,2.1,1.5,1.6,2.7c-0.3,0.7-1,1.2-2.1,1.4l0.5,1.9
			c1.7-0.2,2.8-1.1,3.5-2.8C177.5,129.7,176.1,127.8,173.9,126.9z"/>
		<path class="st1" d="M185.2,115.5l-1.3,0.3c0.1,0.3,0.2,0.5,0.1,0.9c-0.1,0.4-0.5,0.8-1,0.6c-0.8-0.2-1.5-1.1-1.5-2.1l-13.7,1
			l-0.7,2.6l11.6,7.3l0.6-2.3l-3.2-1.9l1.1-4.3l3.7-0.1l0.1-0.6c0.2,0.8,0.9,1.9,2.1,2.1c1.1,0.3,2-0.5,2.3-1.6
			C185.5,116.8,185.4,116,185.2,115.5z M174.4,120.9l-1.4-0.8c-1.2-0.7-2.6-1.5-3.9-2.2l0-0.1c1.5,0,3,0,4.5-0.1l1.7-0.1
			L174.4,120.9z"/>
	</g>
	<g>
		<g>
			<g>
				<path class="st2" d="M58.4,101.6c-0.8,1.2-1.3,2.6-2,3.8c-0.9,1.6-1.5,3.3-2.2,4.9c-0.6,1.4-2.2,5.1,0.4,5.7
					c1.8,0.4,3.1-2.2,3.8-3.4c0.8-1.3,1.5-2.7,2.2-4.1c0.7-1.2,1.1-3,2.2-3.9c0.8-0.7-0.2-1.9-1-1.3c-1.3,1.1-1.8,3-2.5,4.5
					c-0.9,2-2,4-3.3,5.8c-0.2,0.3-0.4,0.5-0.7,0.7c-0.8,0.7-0.7-1-0.6-1.4c0.4-1.3,1-2.6,1.5-3.8c0.6-1.4,1.2-2.6,2-3.9
					c0.6-1.1,1-2.3,1.7-3.3c0.2-0.3,0.2-0.6,0-0.9C58.8,99.5,58,97.7,57,96c-1-1.7-2.2-3.3-3.1-5c-0.3-0.5-1-0.6-1.3-0.1
					c-0.7,1-1.2,2.1-1.9,3.1c-0.6,0.9-1.2,1.9-1.7,2.9c-0.6,1.1-1.1,2.2-1.6,3.4c-0.3,0.7-0.5,2-1.1,2.5c-0.2,0.2-0.4,0.6-0.2,0.8
					c1,1.6,1.6,3.4,2.4,5.2c0.8,1.7,1.5,3.6,2.6,5.1c0.4,0.5,1.3,0,0.9-0.6l0,0c-1.8-3.1-2.7-6.7-4.5-9.9l0,0
					c0.3-0.4,0.4-0.8,0.6-1.3c0.4-1.1,0.9-2.2,1.5-3.3c0.6-1.2,1.3-2.4,2-3.5c0.5-0.8,1-1.7,1.5-2.5l0,0c0.7,1.2,1.5,2.4,2.3,3.5
					C56.5,98,57.3,99.9,58.4,101.6L58.4,101.6z"/>
			</g>
			<g>
				<path class="st3" d="M38.3,123c-0.4-0.3-0.8-0.4-1.3-0.6c-1.1-0.4-2.2-0.9-3.3-1.5c-1.2-0.6-2.4-1.3-3.5-2
					c-0.8-0.5-1.7-1-2.5-1.5c0,0,0,0,0,0c1.2-0.7,2.4-1.5,3.5-2.3c1.7-1.1,3.5-1.9,5.2-3c0,0,2.6,1.3,3.9,2c1.6,0.9,3.3,1.5,4.9,2.2
					c1.4,0.6,5.1,2.2,5.7-0.4c0.4-1.8-2.2-3.1-3.4-3.8c-1.3-0.8-2.7-1.5-4.1-2.2c-1.2-0.7-3-1.1-3.9-2.2c-0.7-0.8-1.9,0.2-1.3,1
					c1.1,1.3,3,1.8,4.5,2.5c2,0.9,4,2,5.8,3.3c0.3,0.2,0.5,0.4,0.7,0.7c0.7,0.8-1,0.7-1.4,0.6c-1.3-0.4-2.6-1-3.8-1.5
					c-1.4-0.6-2.6-1.2-3.9-2c-1.1-0.6-2.3-1-3.3-1.7c-0.3-0.2-0.6-0.2-0.9,0c-1.6,1.1-3.4,1.9-5.1,2.9c-1.7,1-3.3,2.2-5,3.1
					c-0.5,0.3-0.6,1-0.1,1.3c1,0.7,2.1,1.2,3.1,1.9c0.9,0.6,1.9,1.2,2.9,1.7c1.1,0.6,2.2,1.1,3.4,1.6c0.7,0.3,2,0.5,2.5,1.1
					c0.2,0.2,0.6,0.4,0.8,0.2c1.6-1,3.4-1.6,5.2-2.4c1.7-0.8,3.6-1.5,5.1-2.6c0.5-0.4,0-1.3-0.6-0.9l0,0
					C45,120.3,41.5,121.3,38.3,123L38.3,123z"/>
			</g>
			<g>
				<path class="st4" d="M57.9,132.3c-0.3,0.4-0.4,0.8-0.6,1.3c-0.4,1.1-0.9,2.2-1.5,3.3c-0.6,1.2-1.3,2.4-2,3.5
					c-0.5,0.8-1,1.7-1.5,2.5l0,0c-0.7-1.2-1.5-2.4-2.3-3.5c-1.1-1.7-1.9-3.5-2.9-5.2c0,0,0,0,0-0.1l0,0c0.8-1.2,1.3-2.6,2-3.9
					c0.9-1.6,1.5-3.3,2.2-4.9c0.6-1.4,2.2-5.1-0.4-5.7c-1.8-0.4-3.1,2.2-3.8,3.4c-0.8,1.3-1.5,2.7-2.2,4.1c-0.7,1.2-1.1,3-2.2,3.9
					c-0.8,0.7,0.2,1.9,1,1.3c1.3-1.1,1.8-3,2.5-4.5c0.9-2,2-4,3.3-5.8c0.2-0.3,0.4-0.5,0.7-0.7c0.8-0.7,0.7,1,0.6,1.4
					c-0.4,1.3-1,2.6-1.5,3.8c-0.6,1.4-1.2,2.6-2,3.9c-0.6,1.1-1,2.3-1.7,3.3c-0.2,0.3-0.2,0.6,0,0.9c1.1,1.6,1.9,3.4,2.9,5.1
					c1,1.7,2.2,3.3,3.1,5c0.3,0.5,1,0.6,1.3,0.1c0.7-1,1.2-2.1,1.9-3.1c0.6-0.9,1.2-1.9,1.7-2.9c0.6-1.1,1.1-2.2,1.6-3.4
					c0.3-0.7,0.5-2,1.1-2.5c0.2-0.2,0.4-0.6,0.2-0.8c-1-1.6-1.6-3.4-2.4-5.2c-0.8-1.7-1.5-3.6-2.6-5.1c-0.4-0.5-1.3,0-0.9,0.6l0,0
					C55.2,125.6,56.2,129.1,57.9,132.3L57.9,132.3z"/>
			</g>
			<g>
				<path class="st5" d="M67.2,112.7c0.4,0.3,0.8,0.4,1.3,0.6c1.1,0.4,2.2,0.9,3.3,1.5c1.2,0.6,2.4,1.3,3.5,2c0.8,0.5,1.7,1,2.5,1.5
					l0,0c-1.2,0.7-2.4,1.5-3.6,2.3c-1.7,1.1-3.5,1.9-5.2,2.9l0,0c-1.2-0.8-2.6-1.3-3.8-2c-1.6-0.9-3.3-1.5-4.9-2.2
					c-1.4-0.6-5.1-2.2-5.7,0.4c-0.4,1.7,2.2,3.1,3.4,3.8c1.3,0.8,2.7,1.5,4.1,2.2c1.2,0.7,3,1.1,3.9,2.2c0.7,0.8,1.9-0.2,1.3-1
					c-1.1-1.3-3-1.8-4.5-2.5c-2-0.9-4-2-5.8-3.3c-0.3-0.2-0.5-0.4-0.7-0.7c-0.7-0.8,1-0.7,1.4-0.6c1.3,0.4,2.6,1,3.8,1.5
					c1.4,0.6,2.6,1.2,3.9,2c1.1,0.6,2.3,1,3.3,1.7c0.3,0.2,0.6,0.2,0.9,0c1.6-1.1,3.4-1.9,5.1-2.9c1.7-1,3.3-2.2,5-3.1
					c0.5-0.3,0.6-1,0.1-1.3c-1-0.7-2.1-1.2-3.1-1.9c-0.9-0.6-1.9-1.2-2.9-1.7c-1.1-0.6-2.2-1.1-3.4-1.6c-0.7-0.3-2-0.5-2.5-1.1
					c-0.2-0.2-0.6-0.4-0.8-0.2c-1.6,1-3.4,1.6-5.2,2.4c-1.7,0.8-3.6,1.5-5.1,2.6c-0.5,0.4,0,1.3,0.6,0.9l0,0
					C60.5,115.4,64,114.4,67.2,112.7L67.2,112.7z"/>
			</g>
		</g>
		<g>
			<path class="st3" d="M85.2,104.3c3,2,5.9,4.2,8.8,6.5c1.4,1.2,2.8,2.4,4.2,3.6c1.1,1,2.4,2.9,3.9,3.1c0.8,0.1,1.3-0.7,1.2-1.4
				c-0.2-1.4-1.9-2.4-2.9-3.3c-1.5-1.3-3-2.6-4.5-3.8c-3-2.4-6-4.7-9.2-6.7C85.3,101.3,83.9,103.4,85.2,104.3L85.2,104.3z"/>
		</g>
		<g>
			<path class="st3" d="M132.5,82.8c0.5,0.1,0.9,0.2,1.4,0.2c1.7,0.1,2.3-2.4,0.6-2.9c-1.7-0.6-3.1-1.1-4.6-2.1
				c-1.7-1.1-3.1,1.2-1.7,2.5c1.3,1.2,1.6,2.1,0.9,3.8c-1,2.7-2.9,0.9-4.2-0.3c-0.3-0.3-0.9-0.1-1.1,0.3l0,0
				c-0.5,1.4,0.9,2.8,2.1,3.4c1.6,0.8,3.3,0.5,4.6-0.8C131.4,86.1,132.3,84.3,132.5,82.8L132.5,82.8z"/>
		</g>
		<g>
			<path class="st3" d="M134.5,75.4c-0.6-0.2-1.1-0.4-1.7-0.4c-0.9,0-1.3,1-0.6,1.6l0,0c1.2,0.9,2.7,1.7,4,2.5
				c1.3,0.8,2.6-0.7,1.7-1.9c-0.8-1.2-0.8-2.2-0.3-3.6c0.5-1.3,1.9-2.1,1.8-3.5c-0.1-0.6-0.6-0.9-1.1-1c-1.9-0.3-3.1,2.9-3.5,4.3
				C134.6,74.1,134.5,74.7,134.5,75.4L134.5,75.4z"/>
		</g>
		<g>
			<path class="st3" d="M148.5,67c1.9,1.9,3,4.5,2.9,7.4c-0.1,1.8-0.7,3.4-1.7,4.9c-1.1,1.6-2.8,2.6-4.1,4.1c-0.9,1.1,0.5,2.5,1.7,2
				c2-0.8,3.9-3,5-4.7c1.3-1.9,1.9-4.2,2-6.5c0.1-5.1-3-9.5-7.5-11.7c-1.1-0.5-2.3,0.9-1.7,1.9c0.8,1.3,1.1,4.4-1,4.8
				c-1.2,0.3-2.7-1.4-3.5-2.1c-0.9-0.7-2.1,0.6-1.3,1.5l0,0c1.4,1.6,3.7,3.9,6.1,2.8C147.4,70.5,148.3,68.8,148.5,67L148.5,67z"/>
		</g>
		<g>
			<path class="st5" d="M59,128.1c2.5,2.6,5.1,5,7.6,7.5c2.6,2.5,5,5.1,7.6,7.5c1.3,1.3,3.5-0.4,2.2-1.9c-2.3-2.6-5.1-4.8-7.6-7.2
				c-2.8-2.5-5.6-5-8.5-7.4C59.5,126,58.3,127.3,59,128.1L59,128.1z"/>
		</g>
		<g>
			<path class="st5" d="M75.9,134.3c-0.9-0.5-1.8-1.1-2.6-1.5c-0.8-0.4-1.2,0.7-0.8,1.2l0,0c1.3,2,3.6,3.9,5.5,5.3
				c1.4,1,3-0.9,2-2.2c-0.6-0.8-0.8-1.8-0.9-2.8c-0.1-0.5-0.1-2.1,0.4-2.4c0.5-0.3,2.5,1.8,2.9,2.1c1.4,1.2,3,2.5,5,2.2
				c1.4-0.2,1.5-1.8,0.6-2.7c-0.9-0.8-2.2-1.3-3.2-2.1c-1-0.8-1.9-1.5-3-2.1c-1.4-0.8-3.3-1-4.4,0.3
				C76.2,130.8,75.8,132.6,75.9,134.3L75.9,134.3z"/>
		</g>
		<g>
			<path class="st5" d="M55.9,160.2c1.3,0.6,2.7,0.7,3.8-0.7c2.3-2.9,0.1-7.2-1.3-9.9c-1-1.9-4.1-0.4-3,1.4c1.1,1.8,2.2,3.7,2.1,5.8
				c0,0.9,0,0.8-0.8,0.4c-0.8-0.3-1.5-1-2.1-1.5c-1-0.9-2.4,0.3-2.2,1.4c0.1,0.7,1.7,4.5,0.8,4.7c-0.9,0.2-2.1-0.8-2.8-1.3
				c-0.8-0.5-1.5-1.1-2.4-1.6c-0.6-0.3-1.4,0.4-0.9,0.9l0,0c1.7,1.7,4.1,5.1,6.9,4.3C56.1,163.6,56.2,162,55.9,160.2L55.9,160.2z"/>
		</g>
		<g>
			<path class="st5" d="M148.5,40c-0.7-0.5,0,0.2,0.2,0.4c0.3,0.3,0.5,0.6,0.8,0.8c0.7,0.8,1.5,1.5,2.3,2.2c1.9,1.8,3.9,3.6,6.1,5.2
				c1.7,1.2,3.7,2.6,5.9,2.6c2.2,0,3.9-1.9,3.4-4.1c-0.2-0.7-1.2-1.1-1.7-0.4c-0.8,1.3-0.8,2.3-2.3,1.9c-2-0.5-3.8-1.9-5.4-3.1
				c-1.8-1.4-3.5-2.9-5.2-4.4c-0.6-0.6-1.3-1.2-1.9-1.7c-0.3-0.2-0.5-0.4-0.8-0.6c-0.2-0.1-1.1-0.4-0.8-0.3
				C148.4,38.4,147.9,39.5,148.5,40L148.5,40z"/>
		</g>
		<path class="st5" d="M153.7,63.8c-0.3,0.3-0.7,0.6-1.1,0.6c-0.2,0-0.4,0-0.6-0.2c0,0-0.1-0.1-0.1-0.2c-0.5-0.4-0.5-1.9,0.8-2.1
			C154.1,61.8,153.9,63.5,153.7,63.8z"/>
		<g>
			<path class="st5" d="M69.7,142.8c-1.9-2.7-5.8-2.4-7.5,0.3c-0.2,0.3-0.3,0.6-0.2,0.9c-1.5,1.5-2.3,3.8-1.5,5.8
				c1.3,3.2,5.2,2.5,7.5,0.9C70.3,149,71.4,145.3,69.7,142.8z M66.4,148.2c-0.9,0.9-3.3,1.9-3.8,0.1c-0.3-1.1,0-2.2,0.6-3.2
				c0.2,0,0.4,0,0.6-0.1c1-0.3,2.2-1.6,3.2-0.6C68,145.5,67.2,147.3,66.4,148.2z"/>
		</g>
		<g>
			<path class="st5" d="M96.4,115.8c-0.5-1.7-3-0.7-2.8,0.9c0.4,2.9,0.2,5.7-1.9,8c-0.7,0.7-1.7,1.4-2.7,1.7l0,0
				c0.2-0.3,0.4-0.5,0.5-0.8c1.1-1.9,1.6-4,0.8-6.1c-0.6-1.7-2.6-2.3-4.1-1.8c-2,0.7-3.1,2.7-3.4,4.8c-0.6,4.8,3.5,8,7.9,6.3
				C95.6,126.9,97.9,120.5,96.4,115.8z M86.7,126L86.7,126c-0.4-0.3-0.7-0.6-0.9-1.2c-0.5-1.2-0.3-2.8,0.4-3.9
				c0.4-0.5,1.4-1.2,1.8-0.4C88.7,121.8,87.9,124.6,86.7,126z"/>
		</g>
		<g>
			<path class="st3" d="M110,102.5c-0.4,2.2-1.8,4.3-3.7,5.4c-1.2,0.7-2.6,0.9-3.8,0.5l0,0c2.5-1.5,4.2-5.1,2.4-7.6
				c-2.4-3.3-6.3,0.1-7,3c-0.5,2,0,4.1,1.3,5.8c1.4,1.7,3.6,2.1,5.7,1.9c4.2-0.3,7.9-4.7,8-8.8C113,100.8,110.3,100.6,110,102.5z
				 M101.1,107.3L101.1,107.3c-0.3-0.3-0.4-0.7-0.6-1.2c-0.3-1.1,0-2.3,0.6-3.2c0.3-0.5,1.1-1.2,1.7-0.8
				C104.6,103.3,102.4,106.3,101.1,107.3z"/>
		</g>
		<g>
			<path class="st3" d="M121.1,94.7c-1.7,0.3-3.4,0.2-5.1,0.2c-0.4-1.2-0.8-2.4-1.1-3.7c-0.5-1.7-3.2-1.3-2.8,0.5
				c0.5,2.1,1.2,4,1.8,6l0,0c-1.6-1-3.2-2.2-4.7-3.3c-2.1-1.6-4.2-3.4-6.7-4.3c-0.7-0.2-1.1,0.7-0.6,1.1c2.1,1.8,4.3,3.4,6.4,5.3
				c2.2,1.9,4.4,3.8,7,5.1c1,0.5,1.9-0.6,1.8-1.5c-0.1-1.2-0.4-2.8-0.5-3.1c0,0,0-0.1,0-0.1l0,0c0,0,3.1,0.4,4.7,0.4
				C123.1,97.3,122.9,94.4,121.1,94.7z"/>
		</g>
		<g>
			<path class="st3" d="M117.7,86.8c0.3,0.3,0.6,0.6,0.9,0.9c1.2,1.2,2.5,2.5,3.8,3.7c1.3,1.3,2.6,2.9,4.2,3.8
				c1.4,0.8,2.8-0.7,1.9-2c-0.9-1.3-2.5-2.4-3.7-3.5c-1.3-1.2-2.6-2.4-3.9-3.5c-0.5-0.5-1-0.9-1.5-1.4l0,0c1-1.1,2.1-2.1,3.2-3.1
				c1.1-1.1-0.5-3-1.6-1.9c-1.1,1.1-2.2,2.3-3.3,3.5l0,0c-1.6-1.5-3.2-3-4.8-4.5c-1-0.9-2.6,0.3-1.6,1.4l0,0
				c1.6,1.7,3.3,3.4,4.9,5.1l0,0c-0.7,1-1.3,2.1-1.2,3.2c0,0.8,1,1.3,1.5,0.6l0,0C116.8,88.2,117.2,87.5,117.7,86.8L117.7,86.8z"/>
		</g>
		<g>
			<path class="st5" d="M154.1,58c0.1-0.1,0.2-0.3,0.2-0.5l0,0c0-0.9,0.1-1.7,0.4-2.6c0.2-0.6,0.5-0.9,0.9-1.2
				c0.2-0.1-0.1,0.1,0.2-0.1c0.1,0,0.4-0.1,0.1-0.1c0.1,0,0.2-0.1,0.4-0.1c0.2,0-0.2,0,0.2,0c0.1,0,0.3,0,0.4,0
				c-0.3-0.1,0.1,0,0.1,0c0.1,0,0.2,0.1,0.4,0.1c0.4,0.2-0.1-0.1,0.1,0.1c0.2,0.1,0.4,0.3,0.6,0.5c0.2,0.2-0.2-0.2,0.1,0.1
				c0.1,0.1,0.2,0.2,0.3,0.3c0.1,0.1,0.3,0.4,0.1,0.1c0.1,0.1,0.1,0.2,0.2,0.3c0.1,0.2-0.1-0.3,0,0.1c0,0.1,0,0.2,0.1,0.4
				c0-0.4,0,0,0,0.1c0,0.3,0.1-0.3,0,0.1c0,0.1-0.2,0.5,0,0.1c-0.1,0.1-0.2,0.2-0.2,0.4c-0.2,0.2,0.3-0.2-0.1,0.1
				c-0.1,0.1-0.3,0.2-0.4,0.3c-0.5,0.4-0.9,0.9-0.9,1.6c0,0.7,0.3,1.1,0.9,1.4c1.3,0.6,2.5-0.6,3.1-1.6c0.5-0.9,0.7-1.8,0.6-2.8
				c-0.2-1.7-1.5-3-3-3.7c-1.4-0.7-3.2-0.6-4.5,0.3c-1.7,1.2-1.8,3.8-1.6,5.7l0,0c0,0,0,0-0.1,0c-0.4-0.1-1,0.1-1,0.1
				c-0.5,0-0.9,0.7-0.4,1l0,0c-0.1-0.2,0-0.2,0,0c0.1,0.2,0.3,0.4,0.5,0.5c0.5,0.3,1.1,0.7,1.6,1.1c1.3,0.9,2.6,1.9,3.8,3
				c1.3,1.1,2.5,2.3,3.7,3.5c0.7,0.7,2.4,2.1,3,0.5c0.5-1.3-1-2.2-1.8-3c-1.2-1.1-2.5-2.3-3.8-3.3c-1.2-1-2.5-2-3.9-2.7
				C154.3,58.1,154.2,58,154.1,58z"/>
		</g>
	</g>
</g>
</svg>
