<?xml version="1.0" encoding="utf-8"?>
<!-- Generator: Adobe Illustrator 24.3.0, SVG Export Plug-In . SVG Version: 6.00 Build 0)  -->
<svg version="1.0" id="Layer_1" xmlns="http://www.w3.org/2000/svg" xmlns:xlink="http://www.w3.org/1999/xlink" x="0px" y="0px"
	 viewBox="0 0 128.7 50.2" style="enable-background:new 0 0 128.7 50.2;" xml:space="preserve">
<style type="text/css">
	.st0{fill:#FFFFFF;}
	.st1{fill:#232322;}
	.st2{fill:#EDC01B;}
	.st3{fill:#A1BF39;}
	.st4{fill:#C21E1E;}
	.st5{fill:#496776;}
</style>
<g>
	<g>
		<g>
			<path class="st1" d="M38.5,9.6c-1.1,0.2-2.1,0.7-3.2,1c-1.4,0.4-2.7,0.9-4,1.5c-1.1,0.4-4.1,1.6-2.9,3.4c0.8,1.2,2.9,0.5,4,0.3
				c1.2-0.3,2.3-0.7,3.5-1c1-0.3,2.3-1.1,3.4-0.9c0.8,0.1,0.9-1.2,0.1-1.3c-1.3-0.1-2.7,0.6-3.9,1.1c-1.6,0.6-3.3,1.1-5,1.4
				c-0.2,0-0.5,0-0.7,0c-0.8,0,0.2-0.9,0.4-1.1c0.9-0.5,2-0.9,2.9-1.2c1.1-0.4,2.1-0.8,3.2-1.1c0.9-0.3,1.8-0.7,2.8-0.9
				c0.3,0,0.4-0.3,0.5-0.5c0.3-1.5,0.9-2.9,1.2-4.4c0.4-1.5,0.6-3,1.1-4.5c0.1-0.4-0.2-0.9-0.7-0.8c-0.9,0.1-1.8,0.5-2.8,0.7
				c-0.9,0.2-1.7,0.4-2.5,0.6c-0.9,0.3-1.8,0.6-2.7,1c-0.6,0.2-1.4,0.8-2,0.8c-0.2,0-0.5,0.1-0.6,0.4c-0.4,1.4-1,2.8-1.5,4.2
				c-0.5,1.3-1.2,2.8-1.4,4.2c-0.1,0.5,0.7,0.7,0.9,0.2l0,0c0.8-2.7,2.2-5.2,3-7.9l0,0c0.4-0.1,0.7-0.2,1-0.4c0.9-0.4,1.8-0.7,2.6-1
				c1-0.4,2-0.6,3-0.8c0.7-0.2,1.5-0.4,2.2-0.6l0,0C40.2,3,40,4,39.8,5.1C39.5,6.6,38.9,8.1,38.5,9.6L38.5,9.6z"/>
		</g>
		<g>
			<path class="st1" d="M15.6,10.4c-0.1-0.4-0.2-0.7-0.4-1c-0.4-0.9-0.7-1.8-1-2.6c-0.4-1-0.6-2-0.8-3c-0.2-0.7-0.4-1.5-0.5-2.2
				c0,0,0,0,0,0c1.1,0.3,2.1,0.5,3.2,0.7c1.5,0.3,3,0.9,4.5,1.3c0,0,0.7,2.1,1,3.2c0.4,1.4,0.9,2.7,1.5,4c0.4,1.1,1.6,4.1,3.4,2.9
				c1.2-0.8,0.5-2.9,0.3-4c-0.3-1.2-0.7-2.3-1-3.5c-0.3-1-1.1-2.3-0.9-3.4c0.1-0.8-1.2-0.9-1.3-0.1c-0.1,1.3,0.6,2.7,1.1,3.9
				c0.6,1.6,1.1,3.3,1.4,5c0,0.2,0,0.5,0,0.7c0,0.8-0.9-0.2-1.1-0.4c-0.5-0.9-0.9-2-1.2-2.9c-0.4-1.1-0.8-2.1-1.1-3.2
				c-0.3-0.9-0.7-1.8-0.9-2.8c0-0.3-0.3-0.4-0.5-0.5c-1.5-0.3-2.9-0.9-4.4-1.2c-1.5-0.4-3-0.6-4.5-1.1c-0.4-0.1-0.9,0.2-0.8,0.7
				c0.1,0.9,0.5,1.9,0.7,2.8c0.2,0.9,0.4,1.7,0.6,2.5c0.3,0.9,0.6,1.8,1,2.7c0.2,0.6,0.8,1.4,0.8,2c0,0.2,0.1,0.5,0.4,0.6
				c1.4,0.4,2.8,1,4.2,1.5c1.3,0.5,2.8,1.2,4.2,1.4c0.5,0.1,0.7-0.7,0.2-0.9l0,0C20.8,12.6,18.3,11.2,15.6,10.4L15.6,10.4z"/>
		</g>
		<g>
			<path class="st1" d="M21.3,26.3c-0.4,0.1-0.7,0.2-1,0.4c-0.9,0.4-1.8,0.7-2.6,1c-1,0.4-2,0.6-3,0.8c-0.7,0.2-1.5,0.4-2.2,0.5l0,0
				c0.3-1.1,0.5-2.1,0.7-3.2c0.3-1.5,0.9-3,1.2-4.5c0,0,0,0,0,0l0,0c1.1-0.2,2.1-0.7,3.2-1c1.4-0.4,2.7-1,4-1.5
				c1.1-0.4,4.1-1.6,2.9-3.4c-0.8-1.2-2.9-0.5-4-0.3c-1.2,0.3-2.3,0.7-3.5,1c-1,0.3-2.3,1.1-3.4,0.9c-0.8-0.1-0.9,1.2-0.1,1.3
				c1.3,0.1,2.7-0.6,3.9-1.1c1.6-0.6,3.3-1.1,5-1.4c0.2,0,0.5,0,0.7,0c0.8,0-0.2,0.9-0.4,1.1c-0.9,0.5-2,0.9-2.9,1.2
				c-1.1,0.4-2.1,0.8-3.2,1.1c-0.9,0.3-1.8,0.7-2.8,0.9c-0.3,0-0.4,0.3-0.5,0.5c-0.3,1.5-0.9,2.9-1.2,4.4c-0.4,1.5-0.6,3-1.1,4.5
				c-0.1,0.4,0.2,0.9,0.7,0.8c0.9-0.1,1.8-0.5,2.8-0.7c0.9-0.2,1.7-0.4,2.5-0.6c0.9-0.3,1.8-0.6,2.7-1c0.6-0.2,1.4-0.8,2-0.8
				c0.2,0,0.5-0.1,0.6-0.4c0.4-1.4,1-2.8,1.5-4.2c0.5-1.3,1.2-2.8,1.4-4.2c0.1-0.5-0.7-0.7-0.9-0.2l0,0
				C23.5,21.1,22.1,23.6,21.3,26.3L21.3,26.3z"/>
		</g>
		<g>
			<path class="st1" d="M37.3,20.6c0.1,0.4,0.2,0.7,0.4,1c0.4,0.9,0.7,1.8,1,2.6c0.4,1,0.6,2,0.8,3c0.2,0.7,0.4,1.5,0.6,2.2l0,0
				c-1.1-0.3-2.2-0.5-3.2-0.7c-1.5-0.3-3-0.9-4.5-1.3l0,0c-0.2-1.1-0.7-2.1-1-3.2c-0.4-1.4-0.9-2.7-1.5-4c-0.4-1.1-1.6-4.1-3.4-2.9
				c-1.2,0.8-0.5,2.9-0.3,4c0.3,1.2,0.7,2.3,1,3.5c0.3,1,1.1,2.3,0.9,3.4c-0.1,0.8,1.2,0.9,1.3,0.1c0.1-1.3-0.6-2.7-1.1-3.9
				c-0.6-1.6-1.1-3.3-1.4-5c0-0.2,0-0.5,0-0.7c0-0.8,0.9,0.2,1.1,0.4c0.5,0.9,0.9,2,1.2,2.9c0.4,1.1,0.8,2.1,1.1,3.2
				c0.3,0.9,0.7,1.8,0.9,2.8c0,0.3,0.3,0.4,0.5,0.5c1.5,0.3,2.9,0.9,4.4,1.2c1.5,0.4,3,0.6,4.5,1.1c0.4,0.1,0.9-0.2,0.8-0.7
				c-0.1-0.9-0.5-1.8-0.7-2.8c-0.2-0.9-0.4-1.7-0.6-2.5c-0.3-0.9-0.6-1.8-1-2.7c-0.2-0.6-0.8-1.4-0.8-2c0-0.2-0.1-0.5-0.4-0.6
				c-1.4-0.4-2.8-1-4.2-1.5c-1.3-0.5-2.8-1.2-4.2-1.4c-0.5-0.1-0.7,0.7-0.2,0.9l0,0C32.1,18.4,34.6,19.8,37.3,20.6L37.3,20.6z"/>
		</g>
	</g>
	<g>
		<path class="st1" d="M51.9,25.9c0.6,2.8,1,5.6,1.2,8.4c0.1,1.4,0.3,2.8,0.3,4.3c0.1,1.2-0.3,2.9,0.5,3.9c0.4,0.5,1.1,0.4,1.4-0.1
			c0.7-0.9,0.3-2.4,0.2-3.4c-0.1-1.5-0.2-3.1-0.4-4.6c-0.3-3-0.8-5.9-1.4-8.8C53.5,24.3,51.6,24.7,51.9,25.9L51.9,25.9z"/>
	</g>
	<g>
		<path class="st1" d="M89.8,40.1c0.2,0.3,0.4,0.6,0.6,0.9c0.9,1,2.6-0.1,2-1.3c-0.7-1.3-1.1-2.3-1.4-3.7c-0.3-1.5-2.4-1.1-2.3,0.4
			c0.1,1.4-0.3,2-1.6,2.6c-2,0.9-2.1-1.1-2.2-2.5c0-0.4-0.5-0.6-0.8-0.4l0,0c-1,0.5-1.1,2-0.7,3c0.4,1.4,1.5,2,2.9,2.1
			C87.4,41.4,88.9,40.9,89.8,40.1L89.8,40.1z"/>
	</g>
	<g>
		<path class="st1" d="M95,37.2c-0.2-0.4-0.4-0.8-0.7-1.2c-0.5-0.5-1.3-0.2-1.2,0.6l0,0c0.2,1.2,0.5,2.4,0.8,3.6
			c0.2,1.1,1.8,1,2-0.1c0.2-1.1,0.8-1.7,1.8-2.1c1-0.4,2.2-0.1,2.9-1c0.3-0.3,0.2-0.8-0.1-1.1c-0.9-1.2-3.3-0.1-4.3,0.4
			C95.7,36.5,95.3,36.8,95,37.2L95,37.2z"/>
	</g>
	<g>
		<path class="st1" d="M107.3,40.2c0,2.1-0.8,4.1-2.5,5.7c-1,1-2.3,1.5-3.7,1.8c-1.5,0.3-3-0.1-4.5,0c-1.1,0.1-1.1,1.7-0.2,2.1
			c1.5,0.7,3.8,0.5,5.4,0.2c1.8-0.3,3.4-1.3,4.7-2.5c2.9-2.7,3.6-6.9,2.4-10.6c-0.3-0.9-1.8-0.8-2,0.1c-0.3,1.2-1.8,3-3.2,2.1
			c-0.8-0.5-0.7-2.3-0.8-3.1c-0.1-0.9-1.5-0.8-1.5,0.1l0,0c-0.1,1.7-0.1,4.2,1.8,4.9C104.8,41.6,106.2,41.1,107.3,40.2L107.3,40.2z"
			/>
	</g>
	<g>
		<path class="st1" d="M24.2,24.6c-0.1,2.8,0,5.5,0.1,8.3c0.1,2.8-0.1,5.6,0,8.3c0,1.4,2.2,1.7,2.3,0.2c0.1-2.7-0.1-5.5-0.3-8.2
			c-0.2-2.9-0.3-5.8-0.6-8.8C25.7,23.7,24.3,23.8,24.2,24.6L24.2,24.6z"/>
	</g>
	<g>
		<path class="st1" d="M30.2,37.4c-0.2-0.8-0.4-1.5-0.6-2.3c-0.2-0.6-1-0.3-1.1,0.2l0,0c-0.4,1.8-0.1,4.1,0.1,5.9
			c0.2,1.3,2.2,1.2,2.3-0.1c0.1-0.8,0.6-1.5,1.1-2.1c0.2-0.3,1.1-1.2,1.6-1.1c0.4,0.1,0.4,2.4,0.4,2.7c0.1,1.5,0.3,3,1.5,3.9
			c0.9,0.6,1.8-0.2,1.8-1.1c0-1-0.5-1.9-0.6-2.9c-0.1-1-0.2-1.9-0.5-2.8c-0.4-1.2-1.3-2.3-2.6-2.3C32.3,35.5,31.1,36.3,30.2,37.4
			L30.2,37.4z"/>
	</g>
	<g>
		<path class="st1" d="M4.8,40.6c0.4,1.1,1.1,1.9,2.4,1.7c2.8-0.3,4-3.9,4.7-6.2c0.5-1.6-2-2.5-2.4-0.9c-0.4,1.6-0.8,3.2-2,4.4
			C7,40.1,7,40,6.8,39.4c-0.2-0.6-0.3-1.3-0.3-2c-0.1-1-1.5-1.1-2-0.4c-0.3,0.4-1.5,3.4-2.2,3c-0.6-0.4-0.7-1.6-0.8-2.2
			c-0.2-0.7-0.2-1.5-0.4-2.2c-0.1-0.5-1-0.6-1,0l0,0c0,1.9-0.5,5.1,1.5,6.2C3,42.6,4,41.7,4.8,40.6L4.8,40.6z"/>
	</g>
	<g>
		<path class="st1" d="M122.2,25.4c-0.1-0.6-0.1,0.1-0.1,0.4c0,0.3,0,0.6,0,0.9c0,0.8,0,1.7,0.1,2.5c0,2.1,0.2,4.2,0.5,6.2
			c0.3,1.6,0.6,3.5,1.8,4.7c1.2,1.2,3.2,1.1,4.1-0.4c0.3-0.5-0.1-1.3-0.7-1.1c-1.1,0.3-1.7,0.8-2.3-0.2c-0.8-1.4-1-3.1-1.3-4.7
			c-0.2-1.7-0.3-3.5-0.5-5.3c0-0.7-0.1-1.3-0.1-2c0-0.2-0.1-0.5-0.1-0.7c0-0.2-0.4-0.8-0.3-0.6C123.1,24.4,122.1,24.8,122.2,25.4
			L122.2,25.4z"/>
	</g>
	<path class="st1" d="M112,41.3c-0.3,0-0.7-0.1-0.9-0.3c-0.1-0.1-0.2-0.2-0.2-0.4c0-0.1,0-0.1,0-0.2c0-0.5,0.8-1.3,1.6-0.7
		C113.3,40.5,112.2,41.3,112,41.3z"/>
	<g>
		<g>
			<path class="st1" d="M17.8,34.6c-0.3,0.1-0.5,0.2-0.6,0.4c-1.6,0-3.4,0.8-4.1,2.4c-1,2.4,1.5,4.2,3.6,4.6c2.3,0.4,4.9-1,5.4-3.4
				C22.5,36,20.2,34.1,17.8,34.6z M17.3,39.7c-1,0-2.9-0.8-2.2-2c0.4-0.7,1.3-1.2,2.1-1.4c0.1,0.1,0.2,0.2,0.4,0.3
				c0.7,0.4,2.1,0.3,2.1,1.4C19.6,39.2,18.2,39.7,17.3,39.7z"/>
		</g>
	</g>
	<g>
		<g>
			<path class="st1" d="M49.6,37.4c-1.3,1.8-3.1,3.3-5.4,3.4c-0.8,0-1.7-0.2-2.4-0.5l0,0c0.3,0,0.5-0.1,0.7-0.2
				c1.6-0.4,3-1.3,3.8-2.9c0.6-1.2-0.1-2.7-1.3-3.2c-1.5-0.7-3.2-0.2-4.5,0.8c-3,2.3-2.5,6.3,0.9,7.8c3.7,1.6,8.4-0.6,10.2-4
				C52.2,37.2,50.3,36.3,49.6,37.4z M40.7,38.7L40.7,38.7c-0.1-0.3,0-0.7,0.1-1.1c0.4-1,1.4-1.7,2.4-1.9c0.5-0.1,1.4,0.1,1.2,0.8
				C44.1,37.5,42.1,38.6,40.7,38.7z"/>
		</g>
	</g>
	<g>
		<g>
			<path class="st1" d="M66.5,38.6c-1.4,1-3.4,1.3-5,0.9c-1-0.3-1.9-0.9-2.4-1.8l0,0c2.2,0.5,5.1-0.5,5.5-2.9
				c0.5-3.2-3.5-3.5-5.5-2.2c-1.4,0.9-2.3,2.3-2.4,3.9c-0.2,1.7,0.8,3.1,2.1,4.2c2.5,2.1,7,1.8,9.3-0.4
				C69.1,39.3,67.7,37.8,66.5,38.6z M58.9,36.3c0.1-0.3,0.2-0.7,0.4-1c0.5-0.7,1.2-1.3,2.1-1.4c0.4-0.1,1.3,0,1.4,0.5
				C63.1,36.1,60.2,36.5,58.9,36.3L58.9,36.3z"/>
		</g>
	</g>
	<g>
		<g>
			<path class="st1" d="M76.9,40.4c-1.1-0.8-2-1.8-2.9-2.7c0.5-0.9,0.9-1.8,1.4-2.7c0.7-1.2-1-2.5-1.8-1.3c-0.9,1.4-1.5,2.9-2.3,4.3
				l0,0c-0.4-1.5-0.6-3-0.8-4.5c-0.3-2-0.4-4.2-1.3-6c-0.3-0.5-1-0.2-0.9,0.3c0.2,2.2,0.5,4.3,0.6,6.4c0.1,2.3,0.3,4.5,1,6.7
				c0.3,0.8,1.4,0.7,1.9,0.2c0.6-0.7,1.3-1.8,1.4-2c0,0,0,0,0,0l0,0c0,0,1.5,1.9,2.4,2.8C76.6,42.9,78.1,41.3,76.9,40.4z"/>
		</g>
	</g>
	<g>
		<path class="st1" d="M79.4,34.2c0,0.3,0,0.6,0,1c0,1.4,0,2.7,0,4.1c0,1.4-0.2,3,0.2,4.4c0.3,1.2,1.9,1.1,2.1-0.1
			c0.2-1.3,0-2.7-0.1-3.9c-0.1-1.4-0.1-2.7-0.2-4.1c0-0.5,0-1.1-0.1-1.6h0c1.1,0,2.3,0,3.5,0c1.2,0,1.4-1.9,0.2-1.9
			c-1.2,0-2.5,0-3.7,0.1l0,0c-0.1-1.7-0.1-3.4-0.2-5.2c0-1-1.6-1.3-1.7-0.2l0,0c-0.1,1.8-0.1,3.7-0.1,5.5l0,0
			c-0.9,0.2-1.9,0.5-2.4,1.1c-0.4,0.4-0.2,1.3,0.5,1.2l0,0C78.2,34.5,78.8,34.3,79.4,34.2L79.4,34.2z"/>
	</g>
	<g>
		<path class="st1" d="M115.4,38.4c0.1,0,0.3,0,0.4-0.2l0,0c0.5-0.5,1-0.9,1.6-1.2c0.4-0.2,0.8-0.2,1.2-0.2c0.1,0-0.1,0,0.1,0
			c0,0,0.3,0.2,0.1,0c0.1,0,0.2,0.1,0.2,0.2c0.1,0.1-0.1-0.1,0.1,0.1c0.1,0.1,0.1,0.2,0.2,0.2c-0.2-0.2,0,0.1,0.1,0.1
			c0,0.1,0.1,0.2,0.1,0.3c0.1,0.3,0-0.1,0,0.1c0.1,0.2,0.1,0.4,0.1,0.6c0,0.2,0-0.2,0,0.1c0,0.1,0,0.2,0,0.3c0,0.1-0.1,0.4,0,0.1
			c0,0.1-0.1,0.2-0.1,0.3c-0.1,0.2,0.1-0.2,0,0.1c-0.1,0.1-0.1,0.2-0.2,0.2c0.2-0.3,0,0-0.1,0c-0.2,0.1,0.3-0.1,0,0
			c-0.1,0-0.4,0.1,0,0c-0.1,0-0.2,0-0.3,0.1c-0.2,0,0.3,0-0.1,0c-0.1,0-0.3,0-0.4,0c-0.5,0-1,0-1.4,0.4c-0.4,0.4-0.4,0.8-0.3,1.3
			c0.4,1,1.7,1.1,2.6,0.9c0.8-0.2,1.4-0.6,1.9-1.2c0.8-1,0.8-2.5,0.4-3.7c-0.4-1.2-1.4-2.1-2.6-2.3c-1.6-0.3-3.1,1.1-4,2.3l0,0
			c0,0,0,0,0,0c-0.2-0.2-0.6-0.5-0.6-0.5c-0.3-0.3-0.9-0.1-0.8,0.4l0,0c0.1-0.2,0.1-0.1,0,0c-0.1,0.2,0,0.4,0,0.5
			c0.1,0.5,0.2,1,0.3,1.5c0.2,1.2,0.3,2.5,0.4,3.8c0.1,1.3,0.1,2.6,0.1,4c0,0.8,0.2,2.5,1.4,1.9c1-0.4,0.7-1.8,0.7-2.6
			c-0.1-1.3-0.1-2.6-0.3-3.9c-0.1-1.2-0.3-2.4-0.7-3.6C115.4,38.5,115.4,38.4,115.4,38.4z"/>
	</g>
</g>
</svg>
