<?xml version="1.0" encoding="UTF-8" standalone="no"?>
<!-- Created with Inkscape (http://www.inkscape.org/) -->

<svg
   xmlns:dc="http://purl.org/dc/elements/1.1/"
   xmlns:cc="http://creativecommons.org/ns#"
   xmlns:rdf="http://www.w3.org/1999/02/22-rdf-syntax-ns#"
   xmlns:svg="http://www.w3.org/2000/svg"
   xmlns="http://www.w3.org/2000/svg"
   xmlns:sodipodi="http://sodipodi.sourceforge.net/DTD/sodipodi-0.dtd"
   xmlns:inkscape="http://www.inkscape.org/namespaces/inkscape"
   id="svg2"
   version="1.1"
   inkscape:version="0.91 r13725"
   xml:space="preserve"
   width="408.4136"
   height="184.2762"
   viewBox="0 0 408.4136 184.2762"
   sodipodi:docname="mpv.svg"
   inkscape:export-filename="/home/janek/Desktop/mpw.png"
   inkscape:export-xdpi="98.167862"
   inkscape:export-ydpi="98.167862"><metadata
     id="metadata8"><rdf:RDF><cc:Work
         rdf:about=""><dc:format>image/svg+xml</dc:format><dc:type
           rdf:resource="http://purl.org/dc/dcmitype/StillImage" /><dc:title></dc:title></cc:Work></rdf:RDF></metadata><defs
     id="defs6" /><sodipodi:namedview
     pagecolor="#ffffff"
     bordercolor="#666666"
     borderopacity="1"
     objecttolerance="10"
     gridtolerance="10"
     guidetolerance="10"
     inkscape:pageopacity="0"
     inkscape:pageshadow="2"
     inkscape:window-width="1173"
     inkscape:window-height="539"
     id="namedview4"
     showgrid="false"
     fit-margin-bottom="30"
     fit-margin-top="10"
     fit-margin-left="0"
     fit-margin-right="0"
     inkscape:zoom="0.69049859"
     inkscape:cx="192.79485"
     inkscape:cy="97.51833"
     inkscape:window-x="0"
     inkscape:window-y="24"
     inkscape:window-maximized="0"
     inkscape:current-layer="g10" /><g
     id="g10"
     inkscape:groupmode="layer"
     inkscape:label="ink_ext_XXXXXX"
     transform="matrix(1.25,0,0,-1.25,-72.95515,213.75788)"><g
       id="g4245"><path
         d="m 283.804,130.067 0,-7.982 3.942,0 0,7.892 c 0,2.046 0.674,2.966 2.203,2.966 0.92,0 1.687,-0.429 1.9,-1.133 0.123,-0.396 0.243,-1.253 0.243,-2.016 l 0,-7.709 3.913,0 0,8.319 c 0,1.773 -0.336,3.209 -0.947,4.035 -0.766,1.037 -2.383,1.77 -3.946,1.77 -1.619,0 -2.752,-0.55 -4.189,-1.983 -0.703,1.344 -1.866,1.953 -3.606,1.953 -1.989,0 -3.37,-0.917 -4.102,-2.75 l 0,2.384 -3.667,0 0,-13.728 3.94,0 0,8.228 c 0,1.681 0.826,2.63 2.267,2.63 1.409,0 2.049,-0.92 2.049,-2.876"
         style="fill:#ffffff;fill-opacity:1;fill-rule:nonzero;stroke:none"
         id="path16"
         inkscape:connector-curvature="0" /><path
         d="m 263.89,121.625 c 2.084,0 3.46,0.887 4.257,2.78 l 0,-2.32 3.666,0 0,13.728 -3.943,0 0,-8.166 c 0,-1.802 -0.856,-2.782 -2.446,-2.782 -1.043,0 -1.87,0.58 -2.023,1.466 -0.09,0.337 -0.12,1.039 -0.12,1.683 l 0,7.799 -3.882,0 0,-9.359 c 0,-3.086 1.619,-4.829 4.491,-4.829"
         style="fill:#ffffff;fill-opacity:1;fill-rule:nonzero;stroke:none"
         id="path18"
         inkscape:connector-curvature="0" /><path
         d="m 249.764,133.37 c 1.68,0 2.814,-0.98 3.15,-2.726 l -6.515,0 c 0.307,1.775 1.47,2.726 3.365,2.726 z m 0.215,-11.835 c 3.025,0 5.625,1.65 6.545,4.157 l -3.61,0.856 c -0.733,-1.163 -1.683,-1.714 -2.966,-1.714 -2.02,0 -3.302,1.225 -3.579,3.367 l 10.214,0 c 0.03,0.429 0.03,0.643 0.03,0.856 0,4.313 -2.783,7.339 -6.757,7.339 -4.1,0 -7.22,-3.208 -7.22,-7.432 0,-4.313 3.09,-7.429 7.343,-7.429"
         style="fill:#ffffff;fill-opacity:1;fill-rule:nonzero;stroke:none"
         id="path20"
         inkscape:connector-curvature="0" /><path
         d="m 240.956,122.085 0,3.117 -5.139,0 5.139,10.611 -10.123,0 0,-2.993 4.526,0 -5.139,-10.735 10.736,0"
         style="fill:#ffffff;fill-opacity:1;fill-rule:nonzero;stroke:none"
         id="path22"
         inkscape:connector-curvature="0" /><path
         d="m 219.545,121.625 c 2.083,0 3.459,0.887 4.256,2.78 l 0,-2.32 3.666,0 0,13.728 -3.943,0 0,-8.166 c 0,-1.802 -0.856,-2.782 -2.445,-2.782 -1.043,0 -1.871,0.58 -2.023,1.466 -0.091,0.337 -0.121,1.039 -0.121,1.683 l 0,7.799 -3.882,0 0,-9.359 c 0,-3.086 1.619,-4.829 4.492,-4.829"
         style="fill:#ffffff;fill-opacity:1;fill-rule:nonzero;stroke:none"
         id="path24"
         inkscape:connector-curvature="0" /><path
         d="m 194.194,136.763 5.017,-14.494 2.506,0 4.861,14.217 1.287,-14.401 4.036,0 -1.986,20.18 -4.62,0 -4.862,-13.604 -4.863,13.604 -4.589,0 -1.985,-20.18 4.066,0 1.132,14.678"
         style="fill:#ffffff;fill-opacity:1;fill-rule:nonzero;stroke:none"
         id="path26"
         inkscape:connector-curvature="0" /><path
         d="m 194.693,105.944 -1.094,0 0,5.299 1.216,0.029 0.501,0 c 2.498,0 3.655,-0.826 3.655,-2.604 0,-1.898 -1.313,-2.724 -4.278,-2.724 z m 1.467,8.874 -6.96,0 0,-20.195 4.399,0 0,7.865 c 0.937,-0.059 1.374,-0.09 1.841,-0.09 4.996,0 7.804,2.29 7.804,6.393 0,1.838 -0.623,3.459 -1.748,4.5 -1.185,1.1 -2.681,1.527 -5.336,1.527"
         style="fill:#ffffff;fill-opacity:1;fill-rule:nonzero;stroke:none"
         id="path28"
         inkscape:connector-curvature="0" /><path
         d="m 317.322,105.396 c 2.061,0 3.464,-1.591 3.464,-3.949 0,-2.2982 -1.374,-3.8888 -3.435,-3.8888 -2.091,0 -3.469,1.5609 -3.469,3.9488 0,2.358 1.345,3.889 3.44,3.889 z m -1.094,-11.139 c 1.343,0 2.624,0.4879 3.499,1.3442 0.309,0.3367 0.499,0.5808 0.873,1.2539 l 0,-2.2313 3.806,0 0,13.7372 -3.806,0 0,-2.234 c -0.967,1.714 -2.436,2.571 -4.279,2.571 -3.653,0 -6.397,-3.088 -6.397,-7.251 0,-4.1048 2.711,-7.19 6.304,-7.19"
         style="fill:#ffffff;fill-opacity:1;fill-rule:nonzero;stroke:none"
         id="path30"
         inkscape:connector-curvature="0" /><path
         d="m 302.463,94.623 4.02227,0 0,13.7375 -4.02227,0 0,-13.7375 z"
         style="fill:#ffffff;fill-opacity:1;fill-rule:nonzero;stroke:none"
         id="path32"
         inkscape:connector-curvature="0" /><path
         d="m 304.491,110.749 c 1.371,0 2.465,1.071 2.465,2.418 0,1.345 -1.094,2.385 -2.465,2.385 -1.375,0 -2.499,-1.04 -2.499,-2.385 0,-1.347 1.124,-2.418 2.499,-2.418"
         style="fill:#ffffff;fill-opacity:1;fill-rule:nonzero;stroke:none"
         id="path34"
         inkscape:connector-curvature="0" /><path
         d="m 288.938,106.006 0,2.355 -3.649,0 0,-13.7372 3.992,0 0,7.9282 c 0,1.987 0.81,2.968 2.468,2.968 1.717,0 2.435,-0.951 2.435,-3.276 l 0,-7.6202 4.025,0 0,8.2002 c 0,2.479 -0.407,3.826 -1.468,4.714 -0.903,0.793 -2.15,1.22 -3.495,1.22 -2.061,0 -3.499,-0.917 -4.308,-2.752"
         style="fill:#ffffff;fill-opacity:1;fill-rule:nonzero;stroke:none"
         id="path36"
         inkscape:connector-curvature="0" /><path
         d="m 273.981,97.5582 c -2.094,0 -3.469,1.5609 -3.469,3.9488 0,2.358 1.345,3.889 3.437,3.889 2.06,0 3.467,-1.591 3.467,-3.949 0,-2.2982 -1.374,-3.8888 -3.435,-3.8888 z m 3.249,8.5688 c -0.971,1.714 -2.438,2.571 -4.28,2.571 -3.654,0 -6.396,-3.088 -6.396,-7.251 0,-4.1048 2.711,-7.19 6.3,-7.19 1.344,0 2.625,0.4879 3.498,1.3442 0.314,0.3367 0.5,0.5808 0.878,1.2539 l 0,-2.2313 3.802,0 0,13.7372 -3.802,0 0,-2.234"
         style="fill:#ffffff;fill-opacity:1;fill-rule:nonzero;stroke:none"
         id="path38"
         inkscape:connector-curvature="0" /><path
         d="m 254.863,105.337 2.248,0 0,-5.6972 c 0,-3.7328 1.904,-5.2 5.179,-5.2 0.56,0 1.312,0.0911 1.871,0.184 l 0,3.5153 c -0.344,-0.093 -0.934,-0.184 -1.34,-0.184 -1.311,0 -1.781,0.7347 -1.781,2.0211 l 0,5.3608 2.718,0 0,2.87 -2.718,0 0,4.102 -3.929,0 0,-4.102 -2.248,0 0,-2.87"
         style="fill:#ffffff;fill-opacity:1;fill-rule:nonzero;stroke:none"
         id="path40"
         inkscape:connector-curvature="0" /><path
         d="m 248.236,105.64 c 0.814,0 1.405,-0.304 2.154,-1.131 l 2.215,2.662 c -1.497,1.25 -2.901,1.834 -4.619,1.834 -2.808,0 -4.9,-1.804 -4.9,-4.222 0,-1.684 0.905,-3.032 2.529,-3.826 l 1.246,-0.614 c 1.096,-0.52 1.659,-1.134 1.659,-1.7739 0,-0.5832 -0.534,-1.0742 -1.221,-1.0742 -0.907,0 -1.78,0.491 -2.622,1.411 l -2.184,-2.695 c 1.375,-1.3738 2.838,-2.0168 4.806,-2.0168 2.935,0 5.213,1.8969 5.213,4.2821 0,1.6238 -1.031,3.1548 -2.622,3.9488 l -1.497,0.736 c -1,0.491 -1.314,0.857 -1.314,1.409 0,0.673 0.407,1.07 1.157,1.07"
         style="fill:#ffffff;fill-opacity:1;fill-rule:nonzero;stroke:none"
         id="path42"
         inkscape:connector-curvature="0" /><path
         d="m 235.013,99.059 -2.811,9.302 -2.842,0 -2.652,-9.3622 -1.905,9.3622 -4.151,0 3.778,-13.7372 3.996,0 2.278,8.2912 2.497,-8.2912 3.933,0 3.839,13.7372 -4.026,0 -1.934,-9.302"
         style="fill:#ffffff;fill-opacity:1;fill-rule:nonzero;stroke:none"
         id="path44"
         inkscape:connector-curvature="0" /><path
         d="m 215.159,101.414 c 0,-2.2652 -1.404,-3.7949 -3.499,-3.7949 -2.124,0 -3.528,1.5297 -3.528,3.8289 0,2.265 1.437,3.794 3.562,3.794 2.061,0 3.465,-1.529 3.465,-3.828 z m -11.019,0.093 c 0,-4.1648 3.305,-7.4672 7.49,-7.4672 4.183,0 7.458,3.2723 7.458,7.4082 0,4.132 -3.306,7.434 -7.428,7.434 -4.182,0 -7.52,-3.272 -7.52,-7.375"
         style="fill:#ffffff;fill-opacity:1;fill-rule:nonzero;stroke:none"
         id="path46"
         inkscape:connector-curvature="0" /><path
         d="m 377.9,70.1891 c -2.062,0 -3.424,1.5281 -3.424,3.8179 0,2.2629 1.393,3.791 3.454,3.791 1.997,0 3.359,-1.5281 3.359,-3.821 0,-2.2598 -1.362,-3.7879 -3.389,-3.7879 z m 0,11.2398 c -4.056,0 -7.29,-3.2648 -7.29,-7.359 0,-4.157 3.204,-7.4527 7.256,-7.4527 4.057,0 7.229,3.266 7.229,7.3898 0,4.1262 -3.202,7.4219 -7.195,7.4219"
         style="fill:#ffffff;fill-opacity:1;fill-rule:nonzero;stroke:none"
         id="path48"
         inkscape:connector-curvature="0" /><path
         d="m 361.233,70.309 c -2.058,0 -3.36,1.4969 -3.36,3.8512 0,2.2617 1.302,3.7597 3.3,3.7597 1.998,0 3.3,-1.498 3.3,-3.8199 0,-2.3828 -1.212,-3.791 -3.24,-3.791 z m 3.18,8.5879 c -1.119,1.707 -2.301,2.409 -4.115,2.409 -3.603,0 -6.292,-3.1418 -6.292,-7.3289 0,-3.911 2.569,-6.87 6.018,-6.87 1.938,0 3.36,0.886 4.086,2.5328 l 0,-1.7418 c 0,-1.4628 -0.153,-2.1992 -0.576,-2.7781 -0.513,-0.766 -1.511,-1.191 -2.664,-1.191 -1.601,0 -2.843,0.366 -3.873,1.7402 L 354.4,63.3148 c 1.359,-1.9828 3.716,-3.1418 6.38,-3.1418 3.117,0 5.837,1.7379 6.717,4.2442 0.359,1.0078 0.483,1.893 0.483,3.4808 l 0,13.0122 -3.567,0 0,-2.0133"
         style="fill:#ffffff;fill-opacity:1;fill-rule:nonzero;stroke:none"
         id="path50"
         inkscape:connector-curvature="0" /><path
         d="m 341.508,75.748 c 0.303,1.7731 1.452,2.7219 3.326,2.7219 1.666,0 2.785,-0.9777 3.117,-2.7219 l -6.443,0 z m 3.417,5.7411 c -4.053,0 -7.139,-3.202 -7.139,-7.4192 0,-4.3109 3.056,-7.423 7.261,-7.423 2.995,0 5.565,1.648 6.474,4.1551 l -3.57,0.855 c -0.725,-1.1609 -1.664,-1.714 -2.933,-1.714 -1.999,0 -3.266,1.2242 -3.54,3.3648 l 10.103,0 c 0.03,0.4262 0.03,0.6391 0.03,0.8524 0,4.3097 -2.75,7.3289 -6.686,7.3289"
         style="fill:#ffffff;fill-opacity:1;fill-rule:nonzero;stroke:none"
         id="path52"
         inkscape:connector-curvature="0" /><path
         d="m 331.258,67.2 3.89883,0 0,13.7102 -3.89883,0 0,-13.7102 z"
         style="fill:#ffffff;fill-opacity:1;fill-rule:nonzero;stroke:none"
         id="path54"
         inkscape:connector-curvature="0" /><path
         d="m 316.187,67.2 3.83984,0 0,21.498 -3.83984,0 0,-21.498 z"
         style="fill:#ffffff;fill-opacity:1;fill-rule:nonzero;stroke:none"
         id="path56"
         inkscape:connector-curvature="0" /><path
         d="m 328.468,80.9102 -4.449,0 -3.689,-6.5981 4.052,-7.1121 4.359,0 -4.359,7.4191 4.086,6.2911"
         style="fill:#ffffff;fill-opacity:1;fill-rule:nonzero;stroke:none"
         id="path58"
         inkscape:connector-curvature="0" /><path
         d="m 309.292,78.1941 c 0.786,0 1.362,-0.307 2.088,-1.132 l 2.145,2.6559 c -1.452,1.2511 -2.81,1.8308 -4.476,1.8308 -2.723,0 -4.747,-1.7976 -4.747,-4.2109 0,-1.6797 0.877,-3.025 2.45,-3.8207 l 1.208,-0.6082 c 1.059,-0.5199 1.605,-1.132 1.605,-1.775 0,-0.5789 -0.516,-1.068 -1.182,-1.068 -0.878,0 -1.725,0.4891 -2.54,1.4051 l -2.115,-2.6871 c 1.329,-1.3719 2.751,-2.0129 4.655,-2.0129 2.844,0 5.052,1.8898 5.052,4.273 0,1.618 -0.999,3.145 -2.54,3.9411 l -1.449,0.7367 c -0.973,0.4851 -1.277,0.8543 -1.277,1.4043 0,0.6718 0.397,1.0679 1.123,1.0679"
         style="fill:#ffffff;fill-opacity:1;fill-rule:nonzero;stroke:none"
         id="path60"
         inkscape:connector-curvature="0" /><path
         d="m 296.887,71.627 -2.725,9.2832 -2.753,0 -2.57,-9.3473 -1.846,9.3473 -4.022,0 3.659,-13.7102 3.874,0 2.207,8.275 2.42,-8.275 3.811,0 3.722,13.7102 -3.903,0 -1.874,-9.2832"
         style="fill:#ffffff;fill-opacity:1;fill-rule:nonzero;stroke:none"
         id="path62"
         inkscape:connector-curvature="0" /><path
         d="m 273.561,70.1262 c -2.028,0 -3.36,1.5609 -3.36,3.9429 0,2.3528 1.302,3.8821 3.33,3.8821 1.998,0 3.359,-1.591 3.359,-3.9442 0,-2.291 -1.332,-3.8808 -3.329,-3.8808 z m 3.15,8.5539 c -0.939,1.7109 -2.361,2.5668 -4.15,2.5668 -3.539,0 -6.196,-3.0828 -6.196,-7.2399 0,-4.0941 2.627,-7.1761 6.107,-7.1761 1.302,0 2.544,0.489 3.39,1.3441 0.302,0.3359 0.486,0.5789 0.849,1.252 l 0,-2.227 3.686,0 0,13.7102 -3.686,0 0,-2.2301"
         style="fill:#ffffff;fill-opacity:1;fill-rule:nonzero;stroke:none"
         id="path64"
         inkscape:connector-curvature="0" /><path
         d="m 248.176,78.1941 c 0.786,0 1.362,-0.307 2.088,-1.132 l 2.145,2.6559 c -1.452,1.2511 -2.811,1.8308 -4.476,1.8308 -2.723,0 -4.747,-1.7976 -4.747,-4.2109 0,-1.6797 0.877,-3.025 2.446,-3.8207 l 1.212,-0.6082 c 1.059,-0.5199 1.606,-1.132 1.606,-1.775 0,-0.5789 -0.517,-1.068 -1.183,-1.068 -0.879,0 -1.725,0.4891 -2.54,1.4051 l -2.115,-2.6871 c 1.329,-1.3719 2.751,-2.0129 4.655,-2.0129 2.845,0 5.052,1.8898 5.052,4.273 0,1.618 -0.999,3.145 -2.54,3.9411 l -1.449,0.7367 c -0.973,0.4851 -1.276,0.8543 -1.276,1.4043 0,0.6718 0.394,1.0679 1.122,1.0679"
         style="fill:#ffffff;fill-opacity:1;fill-rule:nonzero;stroke:none"
         id="path66"
         inkscape:connector-curvature="0" /><path
         d="m 236.578,78.65 0,2.2602 -3.566,0 0,-13.7114 3.87,0 0,7.45 c 0,1.1293 0.059,1.4641 0.362,1.8352 0.423,0.514 1.269,0.8211 2.269,0.8211 0.636,0 0.786,-0.0301 1.208,-0.243 l 0,4.1508 c -0.393,0.123 -0.542,0.1531 -0.876,0.1531 -1.391,0 -2.39,-0.8558 -3.267,-2.716"
         style="fill:#ffffff;fill-opacity:1;fill-rule:nonzero;stroke:none"
         id="path68"
         inkscape:connector-curvature="0" /><path
         d="m 222.486,70.1262 c -2.027,0 -3.359,1.5609 -3.359,3.9429 0,2.3528 1.301,3.8821 3.329,3.8821 1.999,0 3.36,-1.591 3.36,-3.9442 0,-2.291 -1.332,-3.8808 -3.33,-3.8808 z m 3.151,8.5539 c -0.939,1.7109 -2.362,2.5668 -4.147,2.5668 -3.539,0 -6.199,-3.0828 -6.199,-7.2399 0,-4.0941 2.627,-7.1761 6.107,-7.1761 1.301,0 2.544,0.489 3.389,1.3441 0.303,0.3359 0.487,0.5789 0.85,1.252 l 0,-2.227 3.686,0 0,13.7102 -3.686,0 0,-2.2301"
         style="fill:#ffffff;fill-opacity:1;fill-rule:nonzero;stroke:none"
         id="path70"
         inkscape:connector-curvature="0" /><path
         d="m 206.968,72.4191 -4.688,14.9348 -3.329,0 -4.69,-14.9957 -3.296,14.9957 -4.539,0 5.567,-20.1539 4.236,0 4.356,13.6199 4.509,-13.6199 4.172,0 5.568,20.1539 -4.479,0 -3.387,-14.9348"
         style="fill:#ffffff;fill-opacity:1;fill-rule:nonzero;stroke:none"
         id="path72"
         inkscape:connector-curvature="0" /><path
         d="m 254.868,80.9102 0,-2.9891 4.522,0 -5.135,-10.7211 10.76,0 0,3.1121 -5.135,0 5.135,10.5981 -10.147,0"
         style="fill:#ffffff;fill-opacity:1;fill-rule:nonzero;stroke:none"
         id="path74"
         inkscape:connector-curvature="0" /><path
         d="m 333.223,88.0859 c -1.328,0 -2.417,-1.039 -2.417,-2.3828 0,-1.3422 1.089,-2.409 2.417,-2.409 1.329,0 2.388,1.0668 2.388,2.409 0,1.3438 -1.059,2.3828 -2.388,2.3828"
         style="fill:#ffffff;fill-opacity:1;fill-rule:nonzero;stroke:none"
         id="path76"
         inkscape:connector-curvature="0" /><path
         d="m 158.995,73.5859 c 0.28,1.1039 0.881,1.8063 0.962,3.5282 -0.121,0.3621 -0.408,0.9257 -0.62,1.1859 -0.152,-2.052 -0.541,-4.8129 -2.064,-6.5121 -0.31,-0.05 -0.482,0.2621 -0.607,0.5519 -0.378,0.9032 0.783,2.5954 1.021,3.5672 0.141,0.561 0.092,1.2731 0.177,1.818 0.44,2.7891 1.17,5.6672 0.886,8.3398 -0.198,1.9043 -0.739,3.8661 -1.226,5.7172 -0.172,0.652 -0.362,1.334 -0.495,2.0012 -0.066,0.077 -0.166,0.2098 -0.176,0.2668 -0.102,0.5852 -0.415,0.7641 -1.027,0.893 -0.131,-0.352 -0.024,-0.893 -0.692,-1.5981 0.218,-2.0898 0.711,-5.023 0.218,-5.7051 -0.707,-1.0929 -1.516,-0.5878 -2.26,-0.1679 -0.195,0.973 0.03,2.1863 0.257,3.2402 0.222,1.0367 0.093,2.0539 -0.049,2.8777 -2.396,2.125 -2.354,2.8891 -3.867,6.6882 -0.996,0.552 -2.87,2.507 -2.808,2.942 -0.392,0.173 -0.75,0.319 -1.07,0.429 l -1.373,0.166 c -0.006,-0.003 0.773,-3.413 -0.094,-5.1779 -0.215,-0.0301 -0.062,-0.4562 -0.163,-0.7621 -0.408,-0.1789 -0.509,0.134 -0.865,-0.023 -0.757,-1.1098 1.126,-4.6239 0.709,-6.4782 -0.197,-3.0547 0.417,-8.0148 -0.752,-11.0226 0.657,-1.4532 -2.984,-10.341 -4.082,-9.8731 -0.937,-1.9312 -4.204,-2.9711 -6.184,-2.925 -2.093,0.0539 -5.035,2.5239 -5.961,3.152 -5.192,3.5301 -7.583,10.1179 -8.483,17.4609 0.016,0.8809 -0.893,2.718 -1.07,4.4512 -0.022,1.918 -0.085,3.9387 -0.03,5.6109 0.038,1.0828 -0.365,1.3528 0.771,2.1459 0.968,0.154 2.775,0.709 3.58,0.798 1.399,0.153 2.296,-0.022 3.741,0.786 0.881,0.494 2.521,1.096 3.731,1.519 1.109,0.458 1.918,0.94 2.544,1.425 l -0.182,-0.003 c 0.225,0.322 0.481,0.642 0.785,0.951 0.363,0.259 0.721,0.532 1.077,0.814 0.547,0.735 1.02,1.465 1.803,2.165 0.656,0.421 1.298,0.847 1.921,1.279 3.007,3.181 5.387,6.731 6.545,9.351 0.617,1.091 1.143,1.565 1.482,2.373 0.358,1.19 2.51,6.901 2.07,13.103 -0.033,3.504 -0.809,4.658 -1.536,7.622 -0.337,1.386 -0.329,2.706 -0.9,3.829 -0.287,0.56 -1.1,0.643 -1.383,1.207 -1.236,3.284 -2.645,4.095 -3.923,5.442 -2.763,2.838 -5.953,5.395 -10.247,6.99 -0.626,-0.049 -1.236,-0.079 -1.703,0.077 -0.097,0.034 -0.198,0.066 -0.299,0.1 -0.538,-0.047 -1.058,-0.066 -1.455,0.086 -1.132,0.429 -2.329,0.815 -3.585,1.08 -1.701,0.209 -3.483,0.22 -5.316,-0.09 -1.124,-0.192 -1.594,0.871 -2.932,0.39 -0.081,-0.03 -0.508,-0.565 -0.635,-0.586 -0.626,-0.102 -1.002,0.639 -1.999,0.389 -3.135,-0.781 -6.527,0.193 -9.517,-0.778 -0.163,-0.053 -0.649,-0.538 -0.812,-0.588 -2.1068,-0.658 -6.7408,-0.697 -8.8771,-1.266 -2.4071,-0.642 -9.1649,-0.721 -9.9118,-3.394 -0.3062,-1.104 -0.4855,-2.217 0.3559,-1.891 0.5648,-0.127 2.0676,0.774 2.0281,-0.197 -1.0144,-3.042 -0.1687,-1.725 0.0789,-3.752 0.7039,0.148 2.4262,0.368 3.1895,-0.26 0.1336,-0.147 -0.1141,-0.355 -0.2961,-0.459 -0.3137,0.123 -0.7441,-0.043 -1.2625,-0.252 -2.3551,-1.014 -2.9227,-6.184 1.8887,-7.353 0.7468,0.408 2.514,-0.392 2.0961,-1.273 -1.5559,-0.772 -0.5942,-2.28 -0.9387,-3.54 0.6582,-0.735 1.1976,-0.315 1.6656,-1.602 0.7899,-2.607 0.0164,-6.15 0.7516,-8.507 0.7258,-2.339 0.6781,-3.488 1.1304,-5.135 0.5707,-2.074 1.7711,-6.655 1.7391,-8.287 -0.3129,-0.432 -0.8129,-0.782 -1.5695,-1.004 -0.6328,-0.183 -0.9254,0.2 -2.0442,-0.273 -2.5379,-0.871 -2.3843,-0.531 -4.1324,-1.861 -0.6719,-0.51 -0.9039,-0.575 -1.1023,-1.077 0.659,0.176 1.1683,0.289 1.1875,0.199 1.1601,0.373 0.189,-0.976 -0.4317,-1.372 -0.348,-0.323 -0.2375,-0.552 -0.0445,-0.792 0.0684,-0.086 1.1023,-0.426 1.1406,-0.641 -0.6836,-1.053 -2.2176,-2.516 -1.8621,-3.47 -0.1473,-1.476 0.2086,-2.7421 1.1649,-2.973 1.5722,0.0141 1.5293,-0.098 2.4644,0.526 1.0906,0.242 1.707,0.441 2.5024,0.898 0.446,-0.366 -0.3102,-1.4271 -1.1348,-1.513 -1.8301,0.259 -2.2434,-0.7809 -3.5809,-2.0942 -0.1242,-0.9636 -0.1535,-1.6957 0.2797,-1.5589 1.184,0.3691 0.1402,-1.1899 -0.0574,-1.7719 1.8027,0.073 2.2398,1.057 3.5344,1.566 2.2441,1.5281 2.5047,1.093 5.0195,1.9148 0.8832,0.4153 1.2332,0.525 1.4418,-0.8718 0.041,-0.302 -0.1699,-0.8168 -0.0926,-1.475 0.6363,-5.302 1.2336,-9.4399 0.3988,-15.0789 -0.1562,-0.7243 -0.3429,-1.4051 -0.5714,-2.027 -0.0446,-0.4262 -0.0942,-0.8551 -0.1426,-1.2801 -1.1188,-3.6929 -3.141,-7.5949 -6.1645,-10.0379 -1.5976,-1.291 -3.6125,-1.7351 -5.589,-1.4203 -0.0825,0.0403 -0.1637,0.0801 -0.2414,0.1203 -4.495,1.043 -6.6938,5.245 -8.7407,9.3637 -0.5191,0.4063 -0.6816,-0.3598 -1.341,1.691 -0.8648,2.6871 -0.6426,7.2211 -0.2054,8.7391 0,1.643 0.03,3.7832 0.571,5.568 0.5387,1.773 2.0188,4.9871 -2.4617,2.8761 -1.257,-0.5949 -2.5543,-2.0308 -2.7726,-2.7789 0.1918,-0.4761 0.5879,-0.8922 0.5218,-1.523 -0.0683,-0.6981 -0.7406,-1.216 -0.9726,-1.8879 -3.7035,-0.857 0.5,5.5848 -1.9664,4.641 -0.652,-0.25 -0.9297,-0.6453 -1.034,-1.0871 0.5355,-1.1711 -0.4324,-1.7981 -0.6453,-2.341 -0.3813,-1.1 -1.0988,-7.193 0.0164,-7.5281 0.1828,-1.0911 -0.691,-1.0469 -0.8184,-2.2809 -0.0355,-0.209 0.2578,-0.309 0.1957,-0.502 -0.0683,-0.2191 -0.2605,-0.4312 -0.4468,-0.505 -0.6071,-0.2493 -1.0407,0.8339 -1.077,1.3 -0.2141,2.673 1.7781,9.5929 1.1875,10.0339 -0.182,1.009 -1.0293,1.7231 -2.5074,1.5399 -0.3266,0.0262 -0.1274,-0.8438 -0.7828,-1.0598 -0.4114,-1.3601 0.8183,-7.3191 -1.6992,-5.5722 -0.4434,-0.4911 -0.068,-1.795 -1.227,-2.9911 -0.4324,-1.2488 -0.3941,-4.9589 0.4215,-8.4628 0.1433,-1.3161 -0.2059,-2.6661 0.0711,-3.2469 0.982,-2.068 1.9383,-5.286 2.6422,-6.0813 2.5695,-5.8597 7.4586,-11.4636 13.6156,-14.0199 1.0379,-0.5051 2.1785,-0.4949 3.793,-1.1859 1.1457,-0.3571 3.5386,-0.9481 5.0261,-0.55 0.6555,0.18 1.1321,0.755 2.2563,0.55 1.8887,-0.3469 6.5199,0.8699 8.6656,2.007 0.884,0.243 1.7645,0.4852 2.6484,0.7281 2.2367,0.9469 6.1467,5.1489 7.1327,6.8539 0.985,1.7059 2.332,3.5899 2.665,4.441 0.289,-0.4351 2.436,-3.198 2.699,-3.6332 2.054,-3.3808 4.687,-6.9679 8.47,-8.7546 0.855,-0.4071 1.715,-0.3403 2.633,-0.7282 0.61,-0.264 4.48,-1.8218 6.571,-1.4871 0.525,1.1172 6.565,0.2922 7.83,0.5731 0.519,0.1152 1.02,0.2351 1.542,0.3652 1.37,0.2617 3.61,0.552 5.235,1.259 6.558,2.6797 13.482,14.4137 15.295,17.8039 0.787,1.4719 1.468,3.3039 1.312,3.3008 -0.62,-0.0137 -0.262,2.214 -0.167,2.589 M 90.8176,155.109 c -1.0789,-0.665 -2.1621,-1.03 -2.6649,-1.027 -1.0797,0.01 -1.5422,0.432 -0.6554,0.791 0.4672,0.19 1.1644,0.366 2.4882,0.666 0.5321,0.122 2.4719,0.377 3.0653,-0.114 -0.7621,-0.203 -1.6106,0.07 -2.2332,-0.316 m 16.0414,-13.048 19.98,0 0,-19.98 -19.98,0 0,19.98"
         style="fill:#ffffff;fill-opacity:1;fill-rule:nonzero;stroke:none"
         id="path78"
         inkscape:connector-curvature="0" /><path
         d="m 60.0371,101.273 19.9363,0 0,19.9805 -19.9363,0 0,-19.9805 z"
         style="fill:#ffffff;fill-opacity:1;fill-rule:nonzero;stroke:none"
         id="path80"
         inkscape:connector-curvature="0" /><path
         d="m 150.984,143.025 19.9371,0 0,19.9813 -19.9371,0 0,-19.9813 z"
         style="fill:#ffffff;fill-opacity:1;fill-rule:nonzero;stroke:none"
         id="path82"
         inkscape:connector-curvature="0" /></g></g></svg>